<?xml version="1.0" encoding="UTF-8"?><svg xmlns="http://www.w3.org/2000/svg" width="1600" height="900" viewBox="0 0 1600 900"><defs><linearGradient id="cover" x1="0" y1="0" x2="1" y2="1"><stop stop-color="#b4d7f5"/><stop offset=".58" stop-color="#c6f4ef"/><stop offset="1" stop-color="#e9edf7"/></linearGradient></defs><rect width="1600" height="900" fill="url(#cover)"/><text x="70" y="145" fill="#000" font-size="46" font-weight="850" text-anchor="start" font-family="Pretendard, Apple SD Gothic Neo, Arial, sans-serif" letter-spacing="0" >먼저 부딪혀봐야 압니다</text><text x="800" y="450" fill="#000" font-size="64" font-weight="900" text-anchor="middle" font-family="Pretendard, Apple SD Gothic Neo, Arial, sans-serif" letter-spacing="0" >모델의 성향</text><g opacity="0.72"><rect x="270" y="320" width="220" height="62" rx="22" fill="rgba(255,255,255,.32)" stroke="rgba(0,0,0,.2)"/><path d="M308 380 l18 20 l18 -20" fill="rgba(255,255,255,.32)" stroke="rgba(0,0,0,.2)"/><text x="380" y="360" fill="#000" font-size="24" font-weight="750" text-anchor="middle" font-family="Pretendard, Apple SD Gothic Neo, Arial">빠른지</text></g><g opacity="0.72"><rect x="1010" y="320" width="310" height="62" rx="22" fill="rgba(255,255,255,.32)" stroke="rgba(0,0,0,.2)"/><path d="M1048 380 l18 20 l18 -20" fill="rgba(255,255,255,.32)" stroke="rgba(0,0,0,.2)"/><text x="1165" y="360" fill="#000" font-size="24" font-weight="750" text-anchor="middle" font-family="Pretendard, Apple SD Gothic Neo, Arial">어디에 예민한지</text></g><g opacity="0.72"><rect x="410" y="610" width="220" height="62" rx="22" fill="rgba(255,255,255,.32)" stroke="rgba(0,0,0,.2)"/><path d="M448 670 l18 20 l18 -20" fill="rgba(255,255,255,.32)" stroke="rgba(0,0,0,.2)"/><text x="520" y="650" fill="#000" font-size="24" font-weight="750" text-anchor="middle" font-family="Pretendard, Apple SD Gothic Neo, Arial">무엇을 잘하는지</text></g><g opacity="0.72"><rect x="900" y="610" width="220" height="62" rx="22" fill="rgba(255,255,255,.32)" stroke="rgba(0,0,0,.2)"/><path d="M938 670 l18 20 l18 -20" fill="rgba(255,255,255,.32)" stroke="rgba(0,0,0,.2)"/><text x="1010" y="650" fill="#000" font-size="24" font-weight="750" text-anchor="middle" font-family="Pretendard, Apple SD Gothic Neo, Arial">어디서 무너지는지</text></g><g opacity="0.72"><rect x="650" y="250" width="220" height="62" rx="22" fill="rgba(255,255,255,.32)" stroke="rgba(0,0,0,.2)"/><path d="M688 310 l18 20 l18 -20" fill="rgba(255,255,255,.32)" stroke="rgba(0,0,0,.2)"/><text x="760" y="290" fill="#000" font-size="24" font-weight="750" text-anchor="middle" font-family="Pretendard, Apple SD Gothic Neo, Arial">어떤 입력을 좋아하는지</text></g></svg>