<?xml version="1.0" encoding="UTF-8"?><svg xmlns="http://www.w3.org/2000/svg" width="1600" height="900" viewBox="0 0 1600 900"><defs><linearGradient id="cover" x1="0" y1="0" x2="1" y2="1"><stop stop-color="#b4d7f5"/><stop offset=".58" stop-color="#c6f4ef"/><stop offset="1" stop-color="#e9edf7"/></linearGradient></defs><rect width="1600" height="900" fill="url(#cover)"/><text x="70" y="145" fill="#000" font-size="46" font-weight="850" text-anchor="start" font-family="Pretendard, Apple SD Gothic Neo, Arial, sans-serif" letter-spacing="0" >정보를 전부 쫓아가지 마세요</text><g opacity="0.28"><rect x="120" y="260" width="190" height="56" rx="22" fill="rgba(255,255,255,.32)" stroke="rgba(0,0,0,.2)"/><path d="M158 314 l18 20 l18 -20" fill="rgba(255,255,255,.32)" stroke="rgba(0,0,0,.2)"/><text x="215" y="297" fill="#000" font-size="24" font-weight="750" text-anchor="middle" font-family="Pretendard, Apple SD Gothic Neo, Arial">새 모델</text></g><g opacity="0.28"><rect x="257" y="333" width="240" height="56" rx="22" fill="rgba(255,255,255,.32)" stroke="rgba(0,0,0,.2)"/><path d="M295 387 l18 20 l18 -20" fill="rgba(255,255,255,.32)" stroke="rgba(0,0,0,.2)"/><text x="377" y="370" fill="#000" font-size="24" font-weight="750" text-anchor="middle" font-family="Pretendard, Apple SD Gothic Neo, Arial">새 프롬프트</text></g><g opacity="0.28"><rect x="394" y="406" width="290" height="56" rx="22" fill="rgba(255,255,255,.32)" stroke="rgba(0,0,0,.2)"/><path d="M432 460 l18 20 l18 -20" fill="rgba(255,255,255,.32)" stroke="rgba(0,0,0,.2)"/><text x="539" y="443" fill="#000" font-size="24" font-weight="750" text-anchor="middle" font-family="Pretendard, Apple SD Gothic Neo, Arial">새 프레임워크</text></g><g opacity="0.28"><rect x="531" y="479" width="190" height="56" rx="22" fill="rgba(255,255,255,.32)" stroke="rgba(0,0,0,.2)"/><path d="M569 533 l18 20 l18 -20" fill="rgba(255,255,255,.32)" stroke="rgba(0,0,0,.2)"/><text x="626" y="516" fill="#000" font-size="24" font-weight="750" text-anchor="middle" font-family="Pretendard, Apple SD Gothic Neo, Arial">벤치마크</text></g><g opacity="0.28"><rect x="668" y="552" width="240" height="56" rx="22" fill="rgba(255,255,255,.32)" stroke="rgba(0,0,0,.2)"/><path d="M706 606 l18 20 l18 -20" fill="rgba(255,255,255,.32)" stroke="rgba(0,0,0,.2)"/><text x="788" y="589" fill="#000" font-size="24" font-weight="750" text-anchor="middle" font-family="Pretendard, Apple SD Gothic Neo, Arial">워크플로우</text></g><g opacity="0.28"><rect x="805" y="265" width="290" height="56" rx="22" fill="rgba(255,255,255,.32)" stroke="rgba(0,0,0,.2)"/><path d="M843 319 l18 20 l18 -20" fill="rgba(255,255,255,.32)" stroke="rgba(0,0,0,.2)"/><text x="950" y="302" fill="#000" font-size="24" font-weight="750" text-anchor="middle" font-family="Pretendard, Apple SD Gothic Neo, Arial">새 모델</text></g><g opacity="0.28"><rect x="942" y="338" width="190" height="56" rx="22" fill="rgba(255,255,255,.32)" stroke="rgba(0,0,0,.2)"/><path d="M980 392 l18 20 l18 -20" fill="rgba(255,255,255,.32)" stroke="rgba(0,0,0,.2)"/><text x="1037" y="375" fill="#000" font-size="24" font-weight="750" text-anchor="middle" font-family="Pretendard, Apple SD Gothic Neo, Arial">새 프롬프트</text></g><g opacity="0.28"><rect x="1079" y="411" width="240" height="56" rx="22" fill="rgba(255,255,255,.32)" stroke="rgba(0,0,0,.2)"/><path d="M1117 465 l18 20 l18 -20" fill="rgba(255,255,255,.32)" stroke="rgba(0,0,0,.2)"/><text x="1199" y="448" fill="#000" font-size="24" font-weight="750" text-anchor="middle" font-family="Pretendard, Apple SD Gothic Neo, Arial">새 프레임워크</text></g><g opacity="0.28"><rect x="1216" y="484" width="290" height="56" rx="22" fill="rgba(255,255,255,.32)" stroke="rgba(0,0,0,.2)"/><path d="M1254 538 l18 20 l18 -20" fill="rgba(255,255,255,.32)" stroke="rgba(0,0,0,.2)"/><text x="1361" y="521" fill="#000" font-size="24" font-weight="750" text-anchor="middle" font-family="Pretendard, Apple SD Gothic Neo, Arial">벤치마크</text></g><g opacity="0.28"><rect x="1353" y="557" width="190" height="56" rx="22" fill="rgba(255,255,255,.32)" stroke="rgba(0,0,0,.2)"/><path d="M1391 611 l18 20 l18 -20" fill="rgba(255,255,255,.32)" stroke="rgba(0,0,0,.2)"/><text x="1448" y="594" fill="#000" font-size="24" font-weight="750" text-anchor="middle" font-family="Pretendard, Apple SD Gothic Neo, Arial">워크플로우</text></g><g opacity="0.28"><rect x="240" y="270" width="240" height="56" rx="22" fill="rgba(255,255,255,.32)" stroke="rgba(0,0,0,.2)"/><path d="M278 324 l18 20 l18 -20" fill="rgba(255,255,255,.32)" stroke="rgba(0,0,0,.2)"/><text x="360" y="307" fill="#000" font-size="24" font-weight="750" text-anchor="middle" font-family="Pretendard, Apple SD Gothic Neo, Arial">새 모델</text></g><g opacity="0.28"><rect x="377" y="343" width="290" height="56" rx="22" fill="rgba(255,255,255,.32)" stroke="rgba(0,0,0,.2)"/><path d="M415 397 l18 20 l18 -20" fill="rgba(255,255,255,.32)" stroke="rgba(0,0,0,.2)"/><text x="522" y="380" fill="#000" font-size="24" font-weight="750" text-anchor="middle" font-family="Pretendard, Apple SD Gothic Neo, Arial">새 프롬프트</text></g><g opacity="0.28"><rect x="514" y="416" width="190" height="56" rx="22" fill="rgba(255,255,255,.32)" stroke="rgba(0,0,0,.2)"/><path d="M552 470 l18 20 l18 -20" fill="rgba(255,255,255,.32)" stroke="rgba(0,0,0,.2)"/><text x="609" y="453" fill="#000" font-size="24" font-weight="750" text-anchor="middle" font-family="Pretendard, Apple SD Gothic Neo, Arial">새 프레임워크</text></g><g opacity="0.28"><rect x="651" y="489" width="240" height="56" rx="22" fill="rgba(255,255,255,.32)" stroke="rgba(0,0,0,.2)"/><path d="M689 543 l18 20 l18 -20" fill="rgba(255,255,255,.32)" stroke="rgba(0,0,0,.2)"/><text x="771" y="526" fill="#000" font-size="24" font-weight="750" text-anchor="middle" font-family="Pretendard, Apple SD Gothic Neo, Arial">벤치마크</text></g><g opacity="0.28"><rect x="788" y="562" width="290" height="56" rx="22" fill="rgba(255,255,255,.32)" stroke="rgba(0,0,0,.2)"/><path d="M826 616 l18 20 l18 -20" fill="rgba(255,255,255,.32)" stroke="rgba(0,0,0,.2)"/><text x="933" y="599" fill="#000" font-size="24" font-weight="750" text-anchor="middle" font-family="Pretendard, Apple SD Gothic Neo, Arial">워크플로우</text></g><g opacity="0.28"><rect x="925" y="275" width="190" height="56" rx="22" fill="rgba(255,255,255,.32)" stroke="rgba(0,0,0,.2)"/><path d="M963 329 l18 20 l18 -20" fill="rgba(255,255,255,.32)" stroke="rgba(0,0,0,.2)"/><text x="1020" y="312" fill="#000" font-size="24" font-weight="750" text-anchor="middle" font-family="Pretendard, Apple SD Gothic Neo, Arial">새 모델</text></g><g opacity="0.28"><rect x="1062" y="348" width="240" height="56" rx="22" fill="rgba(255,255,255,.32)" stroke="rgba(0,0,0,.2)"/><path d="M1100 402 l18 20 l18 -20" fill="rgba(255,255,255,.32)" stroke="rgba(0,0,0,.2)"/><text x="1182" y="385" fill="#000" font-size="24" font-weight="750" text-anchor="middle" font-family="Pretendard, Apple SD Gothic Neo, Arial">새 프롬프트</text></g><g opacity="0.28"><rect x="1199" y="421" width="290" height="56" rx="22" fill="rgba(255,255,255,.32)" stroke="rgba(0,0,0,.2)"/><path d="M1237 475 l18 20 l18 -20" fill="rgba(255,255,255,.32)" stroke="rgba(0,0,0,.2)"/><text x="1344" y="458" fill="#000" font-size="24" font-weight="750" text-anchor="middle" font-family="Pretendard, Apple SD Gothic Neo, Arial">새 프레임워크</text></g><text x="800" y="520" fill="#000" font-size="70" font-weight="900" text-anchor="middle" font-family="Pretendard, Apple SD Gothic Neo, Arial, sans-serif" letter-spacing="0" >다 따라갈 필요는 없습니다</text></svg>