<?xml version="1.0" encoding="UTF-8"?><svg xmlns="http://www.w3.org/2000/svg" width="1600" height="900" viewBox="0 0 1600 900"><defs><linearGradient id="cover" x1="0" y1="0" x2="1" y2="1"><stop stop-color="#b4d7f5"/><stop offset=".58" stop-color="#c6f4ef"/><stop offset="1" stop-color="#e9edf7"/></linearGradient><filter id="soft"><feGaussianBlur stdDeviation="10"/></filter></defs><rect width="1600" height="900" fill="#000000"/><text x="70" y="145" fill="#f7f7f7" font-size="46" font-weight="850" text-anchor="start" font-family="Pretendard, Apple SD Gothic Neo, Arial, sans-serif" letter-spacing="0" >좋은 Harness는 덜 방해합니다</text><rect x="230" y="310" width="420" height="300" rx="34" fill="#111" stroke="#555" opacity=".4"/><line x1="260" y1="310" x2="620" y2="610" stroke="#777" opacity=".25"/><line x1="300" y1="310" x2="585" y2="610" stroke="#777" opacity=".25"/><line x1="340" y1="310" x2="550" y2="610" stroke="#777" opacity=".25"/><line x1="380" y1="310" x2="515" y2="610" stroke="#777" opacity=".25"/><line x1="420" y1="310" x2="480" y2="610" stroke="#777" opacity=".25"/><line x1="460" y1="310" x2="445" y2="610" stroke="#777" opacity=".25"/><line x1="500" y1="310" x2="410" y2="610" stroke="#777" opacity=".25"/><line x1="540" y1="310" x2="375" y2="610" stroke="#777" opacity=".25"/><line x1="580" y1="310" x2="340" y2="610" stroke="#777" opacity=".25"/><text x="440" y="470" fill="#9b9b9b" font-size="58" font-weight="900" text-anchor="middle" font-family="Pretendard, Apple SD Gothic Neo, Arial, sans-serif" letter-spacing="0" >AI</text><rect x="950" y="330" width="400" height="260" rx="34" fill="#101010" stroke="#15dbe8"/><text x="1150" y="470" fill="#f7f7f7" font-size="48" font-weight="900" text-anchor="middle" font-family="Pretendard, Apple SD Gothic Neo, Arial, sans-serif" letter-spacing="0" >AI + Guide</text></svg>