<?xml version="1.0" encoding="UTF-8"?><svg xmlns="http://www.w3.org/2000/svg" width="1600" height="900" viewBox="0 0 1600 900"><defs><linearGradient id="cover" x1="0" y1="0" x2="1" y2="1"><stop stop-color="#b4d7f5"/><stop offset=".58" stop-color="#c6f4ef"/><stop offset="1" stop-color="#e9edf7"/></linearGradient><filter id="soft"><feGaussianBlur stdDeviation="10"/></filter></defs><rect width="1600" height="900" fill="#000000"/><text x="70" y="145" fill="#f7f7f7" font-size="46" font-weight="850" text-anchor="start" font-family="Pretendard, Apple SD Gothic Neo, Arial, sans-serif" letter-spacing="0" >실패가 작업 흐름을 드러냅니다</text><g opacity="0.75"><rect x="230" y="330" width="210" height="64" rx="22" fill="#242424" stroke="#454545"/><path d="M268 392 l18 20 l18 -20" fill="#242424" stroke="#454545"/><text x="335" y="371" fill="#fff" font-size="24" font-weight="750" text-anchor="middle" font-family="Pretendard, Apple SD Gothic Neo, Arial">에러</text></g><g opacity="0.75"><rect x="620" y="270" width="210" height="64" rx="22" fill="#242424" stroke="#454545"/><path d="M658 332 l18 20 l18 -20" fill="#242424" stroke="#454545"/><text x="725" y="311" fill="#fff" font-size="24" font-weight="750" text-anchor="middle" font-family="Pretendard, Apple SD Gothic Neo, Arial">엉뚱한 결과</text></g><g opacity="0.75"><rect x="1000" y="380" width="210" height="64" rx="22" fill="#242424" stroke="#454545"/><path d="M1038 442 l18 20 l18 -20" fill="#242424" stroke="#454545"/><text x="1105" y="421" fill="#fff" font-size="24" font-weight="750" text-anchor="middle" font-family="Pretendard, Apple SD Gothic Neo, Arial">놀랍게 잘 됨</text></g><g opacity="0.75"><rect x="430" y="610" width="210" height="64" rx="22" fill="#242424" stroke="#454545"/><path d="M468 672 l18 20 l18 -20" fill="#242424" stroke="#454545"/><text x="535" y="651" fill="#fff" font-size="24" font-weight="750" text-anchor="middle" font-family="Pretendard, Apple SD Gothic Neo, Arial">실패</text></g><g opacity="0.75"><rect x="860" y="610" width="210" height="64" rx="22" fill="#242424" stroke="#454545"/><path d="M898 672 l18 20 l18 -20" fill="#242424" stroke="#454545"/><text x="965" y="651" fill="#fff" font-size="24" font-weight="750" text-anchor="middle" font-family="Pretendard, Apple SD Gothic Neo, Arial">수정</text></g><g opacity="0.85"><line x1="460" y1="745" x2="1140" y2="745" stroke="#15dbe8" stroke-width="3"/><path d="M1140 745 l-14 -8 v16 z" fill="#15dbe8" transform="rotate(0 1140 745)"/></g><g opacity="0.95"><circle cx="520" cy="745" r="42" fill="rgba(255,255,255,.07)" stroke="#15dbe8" stroke-width="2"/><text x="520" y="751" fill="#f7f7f7" font-size="28" font-weight="800" text-anchor="middle" font-family="Pretendard, Apple SD Gothic Neo, Arial">시도</text></g><g opacity="0.95"><circle cx="710" cy="745" r="42" fill="rgba(255,255,255,.07)" stroke="#15dbe8" stroke-width="2"/><text x="710" y="751" fill="#f7f7f7" font-size="28" font-weight="800" text-anchor="middle" font-family="Pretendard, Apple SD Gothic Neo, Arial">실패</text></g><g opacity="0.95"><circle cx="900" cy="745" r="42" fill="rgba(255,255,255,.07)" stroke="#15dbe8" stroke-width="2"/><text x="900" y="751" fill="#f7f7f7" font-size="28" font-weight="800" text-anchor="middle" font-family="Pretendard, Apple SD Gothic Neo, Arial">수정</text></g><g opacity="0.95"><circle cx="1090" cy="745" r="42" fill="rgba(255,255,255,.07)" stroke="#15dbe8" stroke-width="2"/><text x="1090" y="751" fill="#f7f7f7" font-size="28" font-weight="800" text-anchor="middle" font-family="Pretendard, Apple SD Gothic Neo, Arial">성공</text></g></svg>