<?xml version="1.0" encoding="UTF-8"?><svg xmlns="http://www.w3.org/2000/svg" width="1600" height="900" viewBox="0 0 1600 900"><defs><linearGradient id="cover" x1="0" y1="0" x2="1" y2="1"><stop stop-color="#b4d7f5"/><stop offset=".58" stop-color="#c6f4ef"/><stop offset="1" stop-color="#e9edf7"/></linearGradient><filter id="soft"><feGaussianBlur stdDeviation="10"/></filter></defs><rect width="1600" height="900" fill="#000000"/><text x="70" y="145" fill="#f7f7f7" font-size="46" font-weight="850" text-anchor="start" font-family="Pretendard, Apple SD Gothic Neo, Arial, sans-serif" letter-spacing="0" >claude.md는 점점 무거워집니다</text><rect x="430" y="235" width="740" height="520" rx="22" fill="#111" stroke="#333"/><line x1="490" y1="300" x2="1110" y2="300" stroke="#777" stroke-width="8" opacity="0.25"/><line x1="490" y1="330" x2="1030" y2="330" stroke="#777" stroke-width="8" opacity="0.28500000000000003"/><line x1="490" y1="360" x2="950" y2="360" stroke="#777" stroke-width="8" opacity="0.32"/><line x1="490" y1="390" x2="1110" y2="390" stroke="#777" stroke-width="8" opacity="0.355"/><line x1="490" y1="420" x2="1030" y2="420" stroke="#777" stroke-width="8" opacity="0.39"/><line x1="490" y1="450" x2="950" y2="450" stroke="#777" stroke-width="8" opacity="0.42500000000000004"/><line x1="490" y1="480" x2="1110" y2="480" stroke="#777" stroke-width="8" opacity="0.46"/><line x1="490" y1="510" x2="1030" y2="510" stroke="#777" stroke-width="8" opacity="0.495"/><line x1="490" y1="540" x2="950" y2="540" stroke="#777" stroke-width="8" opacity="0.53"/><line x1="490" y1="570" x2="1110" y2="570" stroke="#777" stroke-width="8" opacity="0.5650000000000001"/><line x1="490" y1="600" x2="1030" y2="600" stroke="#777" stroke-width="8" opacity="0.6000000000000001"/><line x1="490" y1="630" x2="950" y2="630" stroke="#777" stroke-width="8" opacity="0.635"/><line x1="490" y1="660" x2="1110" y2="660" stroke="#777" stroke-width="8" opacity="0.67"/><line x1="490" y1="690" x2="1030" y2="690" stroke="#777" stroke-width="8" opacity="0.7050000000000001"/><text x="800" y="710" fill="#9b9b9b" font-size="30" font-weight="800" text-anchor="middle" font-family="Pretendard, Apple SD Gothic Neo, Arial, sans-serif" letter-spacing="0" >claude.md</text></svg>