<?xml version="1.0" encoding="UTF-8"?><svg xmlns="http://www.w3.org/2000/svg" width="1600" height="900" viewBox="0 0 1600 900"><defs><linearGradient id="cover" x1="0" y1="0" x2="1" y2="1"><stop stop-color="#b4d7f5"/><stop offset=".58" stop-color="#c6f4ef"/><stop offset="1" stop-color="#e9edf7"/></linearGradient></defs><rect width="1600" height="900" fill="url(#cover)"/><text x="70" y="145" fill="#000" font-size="46" font-weight="850" text-anchor="start" font-family="Pretendard, Apple SD Gothic Neo, Arial, sans-serif" letter-spacing="0" >우선 뭐든 만들어보세요</text><text x="800" y="470" fill="#000" font-size="86" font-weight="900" text-anchor="middle" font-family="Pretendard, Apple SD Gothic Neo, Arial, sans-serif" letter-spacing="0" >우선 뭐든 만들어보세요</text><circle cx="250" cy="280" r="3" fill="#000" opacity=".12"/><circle cx="329" cy="417" r="4" fill="#000" opacity=".12"/><circle cx="408" cy="554" r="5" fill="#000" opacity=".12"/><circle cx="487" cy="311" r="6" fill="#000" opacity=".12"/><circle cx="566" cy="448" r="7" fill="#000" opacity=".12"/><circle cx="645" cy="585" r="3" fill="#000" opacity=".12"/><circle cx="724" cy="342" r="4" fill="#000" opacity=".12"/><circle cx="803" cy="479" r="5" fill="#000" opacity=".12"/><circle cx="882" cy="616" r="6" fill="#000" opacity=".12"/><circle cx="961" cy="373" r="7" fill="#000" opacity=".12"/><circle cx="1040" cy="510" r="3" fill="#000" opacity=".12"/><circle cx="1119" cy="647" r="4" fill="#000" opacity=".12"/><circle cx="1198" cy="404" r="5" fill="#000" opacity=".12"/><circle cx="1277" cy="541" r="6" fill="#000" opacity=".12"/><circle cx="256" cy="298" r="7" fill="#000" opacity=".12"/><circle cx="335" cy="435" r="3" fill="#000" opacity=".12"/><circle cx="414" cy="572" r="4" fill="#000" opacity=".12"/><circle cx="493" cy="329" r="5" fill="#000" opacity=".12"/><circle cx="572" cy="466" r="6" fill="#000" opacity=".12"/><circle cx="651" cy="603" r="7" fill="#000" opacity=".12"/></svg>