<?xml version="1.0" encoding="UTF-8"?><svg xmlns="http://www.w3.org/2000/svg" width="1600" height="900" viewBox="0 0 1600 900"><defs><linearGradient id="cover" x1="0" y1="0" x2="1" y2="1"><stop stop-color="#b4d7f5"/><stop offset=".58" stop-color="#c6f4ef"/><stop offset="1" stop-color="#e9edf7"/></linearGradient></defs><rect width="1600" height="900" fill="url(#cover)"/><text x="70" y="145" fill="#000" font-size="46" font-weight="850" text-anchor="start" font-family="Pretendard, Apple SD Gothic Neo, Arial, sans-serif" letter-spacing="0" >계속 실수하는 부분은 Rules가 됩니다</text><g opacity="0.7"><rect x="210" y="315" width="330" height="64" rx="22" fill="rgba(255,255,255,.32)" stroke="rgba(0,0,0,.2)"/><path d="M248 377 l18 20 l18 -20" fill="rgba(255,255,255,.32)" stroke="rgba(0,0,0,.2)"/><text x="375" y="356" fill="#000" font-size="24" font-weight="750" text-anchor="middle" font-family="Pretendard, Apple SD Gothic Neo, Arial">이건 계속 실수하네</text></g><g opacity="0.7"><rect x="210" y="420" width="330" height="64" rx="22" fill="rgba(255,255,255,.32)" stroke="rgba(0,0,0,.2)"/><path d="M248 482 l18 20 l18 -20" fill="rgba(255,255,255,.32)" stroke="rgba(0,0,0,.2)"/><text x="375" y="461" fill="#000" font-size="24" font-weight="750" text-anchor="middle" font-family="Pretendard, Apple SD Gothic Neo, Arial">항상 체크해야 하네</text></g><g opacity="0.7"><rect x="210" y="525" width="330" height="64" rx="22" fill="rgba(255,255,255,.32)" stroke="rgba(0,0,0,.2)"/><path d="M248 587 l18 20 l18 -20" fill="rgba(255,255,255,.32)" stroke="rgba(0,0,0,.2)"/><text x="375" y="566" fill="#000" font-size="24" font-weight="750" text-anchor="middle" font-family="Pretendard, Apple SD Gothic Neo, Arial">품질이 흔들리네</text></g><g opacity="0.8"><line x1="610" y1="455" x2="840" y2="455" stroke="#15dbe8" stroke-width="3"/><path d="M840 455 l-14 -8 v16 z" fill="#15dbe8" transform="rotate(0 840 455)"/></g><text x="900" y="350" fill="#000" font-size="33" font-weight="800" text-anchor="start" font-family="Pretendard, Apple SD Gothic Neo, Arial, sans-serif" letter-spacing="0" >✓ 렌더 확인</text><text x="900" y="442" fill="#000" font-size="33" font-weight="800" text-anchor="start" font-family="Pretendard, Apple SD Gothic Neo, Arial, sans-serif" letter-spacing="0" >✓ 텍스트 넘침 확인</text><text x="900" y="534" fill="#000" font-size="33" font-weight="800" text-anchor="start" font-family="Pretendard, Apple SD Gothic Neo, Arial, sans-serif" letter-spacing="0" >✓ 모바일 확인</text></svg>