<?xml version="1.0" encoding="UTF-8"?><svg xmlns="http://www.w3.org/2000/svg" width="1600" height="900" viewBox="0 0 1600 900"><rect width="1600" height="900" fill="#000"/><text x="70" y="145" fill="#f7f7f7" font-size="46" font-weight="850" text-anchor="start" font-family="Pretendard, Apple SD Gothic Neo, Arial, sans-serif" letter-spacing="0" >생산성은 흐름 안에서 올라갑니다</text><text x="70" y="195" fill="#9b9b9b" font-size="22" font-weight="500" text-anchor="start" font-family="Pretendard, Apple SD Gothic Neo, Arial, sans-serif" letter-spacing="0" >워크플로우는 계획-설계-구현-검증으로 이어집니다</text><line x1="280" y1="500" x2="1320" y2="500" stroke="#333" stroke-width="6"/><g><circle cx="330" cy="500" r="78" fill="rgba(255,255,255,.07)" stroke="#15dbe8" stroke-width="2"/><text x="330" y="508" fill="#f7f7f7" font-size="30" font-weight="850" text-anchor="middle" font-family="Pretendard, Apple SD Gothic Neo, Arial">계획</text></g><g opacity="0.8"><line x1="680" y1="500" x2="760" y2="500" stroke="#15dbe8" stroke-width="3"/><path d="M760 500 l-14 -8 v16 z" fill="#15dbe8" transform="rotate(0 760 500)"/></g><g><circle cx="590" cy="500" r="78" fill="rgba(255,255,255,.07)" stroke="#15dbe8" stroke-width="2"/><text x="590" y="508" fill="#f7f7f7" font-size="30" font-weight="850" text-anchor="middle" font-family="Pretendard, Apple SD Gothic Neo, Arial">설계</text></g><g opacity="0.8"><line x1="940" y1="500" x2="1020" y2="500" stroke="#15dbe8" stroke-width="3"/><path d="M1020 500 l-14 -8 v16 z" fill="#15dbe8" transform="rotate(0 1020 500)"/></g><g><circle cx="850" cy="500" r="78" fill="rgba(255,255,255,.07)" stroke="#15dbe8" stroke-width="2"/><text x="850" y="508" fill="#f7f7f7" font-size="30" font-weight="850" text-anchor="middle" font-family="Pretendard, Apple SD Gothic Neo, Arial">구현</text></g><g opacity="0.8"><line x1="1200" y1="500" x2="1280" y2="500" stroke="#15dbe8" stroke-width="3"/><path d="M1280 500 l-14 -8 v16 z" fill="#15dbe8" transform="rotate(0 1280 500)"/></g><g><circle cx="1110" cy="500" r="78" fill="rgba(255,255,255,.07)" stroke="#15dbe8" stroke-width="2"/><text x="1110" y="508" fill="#f7f7f7" font-size="30" font-weight="850" text-anchor="middle" font-family="Pretendard, Apple SD Gothic Neo, Arial">검증</text></g><path d="M245 438 C540 365 1000 635 1355 438" fill="none" stroke="#15dbe8" stroke-width="24" opacity=".18"/><text x="800" y="675" fill="#9b9b9b" font-size="26" font-weight="600" text-anchor="middle" font-family="Pretendard, Apple SD Gothic Neo, Arial, sans-serif" letter-spacing="0" >AI는 도구 하나가 아니라 흐름 전체에 들어옵니다</text></svg>