<?xml version="1.0" encoding="UTF-8"?><svg xmlns="http://www.w3.org/2000/svg" width="1600" height="900" viewBox="0 0 1600 900"><defs><linearGradient id="cover" x1="0" y1="0" x2="1" y2="1"><stop stop-color="#b4d7f5"/><stop offset=".58" stop-color="#c6f4ef"/><stop offset="1" stop-color="#e9edf7"/></linearGradient></defs><rect width="1600" height="900" fill="url(#cover)"/><text x="70" y="145" fill="#000" font-size="46" font-weight="850" text-anchor="start" font-family="Pretendard, Apple SD Gothic Neo, Arial, sans-serif" letter-spacing="0" >Workflow는 설계보다 추출에 가깝습니다</text><rect x="240" y="300" width="120" height="42" rx="10" fill="#252525" opacity=".35"/><rect x="390" y="300" width="120" height="42" rx="10" fill="#252525" opacity=".35"/><rect x="540" y="300" width="120" height="42" rx="10" fill="#252525" opacity=".35"/><rect x="690" y="300" width="120" height="42" rx="10" fill="#252525" opacity=".35"/><rect x="240" y="380" width="120" height="42" rx="10" fill="#252525" opacity=".35"/><rect x="390" y="380" width="120" height="42" rx="10" fill="#252525" opacity=".35"/><rect x="540" y="380" width="120" height="42" rx="10" fill="#252525" opacity=".35"/><rect x="690" y="380" width="120" height="42" rx="10" fill="#252525" opacity=".35"/><rect x="240" y="460" width="120" height="42" rx="10" fill="#252525" opacity=".35"/><rect x="390" y="460" width="120" height="42" rx="10" fill="#252525" opacity=".35"/><rect x="540" y="460" width="120" height="42" rx="10" fill="#252525" opacity=".35"/><rect x="690" y="460" width="120" height="42" rx="10" fill="#252525" opacity=".35"/><g opacity="0.8"><line x1="785" y1="445" x2="965" y2="445" stroke="#15dbe8" stroke-width="3"/><path d="M965 445 l-14 -8 v16 z" fill="#15dbe8" transform="rotate(0 965 445)"/></g><rect x="1000" y="350" width="250" height="54" rx="27" fill="rgba(255,255,255,.32)" stroke="#15dbe8"/><text x="1125" y="385" fill="#000" font-size="24" font-weight="800" text-anchor="middle" font-family="Pretendard, Apple SD Gothic Neo, Arial, sans-serif" letter-spacing="0" >패턴 A</text><rect x="1000" y="430" width="250" height="54" rx="27" fill="rgba(255,255,255,.32)" stroke="#15dbe8"/><text x="1125" y="465" fill="#000" font-size="24" font-weight="800" text-anchor="middle" font-family="Pretendard, Apple SD Gothic Neo, Arial, sans-serif" letter-spacing="0" >패턴 B</text><rect x="1000" y="510" width="250" height="54" rx="27" fill="rgba(255,255,255,.32)" stroke="#15dbe8"/><text x="1125" y="545" fill="#000" font-size="24" font-weight="800" text-anchor="middle" font-family="Pretendard, Apple SD Gothic Neo, Arial, sans-serif" letter-spacing="0" >패턴 C</text></svg>