<?xml version="1.0" encoding="UTF-8"?><svg xmlns="http://www.w3.org/2000/svg" width="1600" height="900" viewBox="0 0 1600 900"><defs><linearGradient id="cover" x1="0" y1="0" x2="1" y2="1"><stop stop-color="#b4d7f5"/><stop offset=".58" stop-color="#c6f4ef"/><stop offset="1" stop-color="#e9edf7"/></linearGradient></defs><rect width="1600" height="900" fill="url(#cover)"/><text x="70" y="145" fill="#000" font-size="46" font-weight="850" text-anchor="start" font-family="Pretendard, Apple SD Gothic Neo, Arial, sans-serif" letter-spacing="0" >Workflow와 Harness는 결과물 안에서 자라납니다</text><rect x="560" y="300" width="480" height="300" rx="26" fill="rgba(255,255,255,.32)" stroke="rgba(0,0,0,.24)"/><text x="800" y="460" fill="#000" font-size="58" font-weight="900" text-anchor="middle" font-family="Pretendard, Apple SD Gothic Neo, Arial, sans-serif" letter-spacing="0" >결과물</text><path d="M800 450 C650 360 600 230 520 210" fill="none" stroke="#15dbe8" stroke-width="2" opacity=".38"/><path d="M800 450 C678 380 634 265 570 235" fill="none" stroke="#15dbe8" stroke-width="2" opacity=".38"/><path d="M800 450 C706 400 668 300 620 260" fill="none" stroke="#15dbe8" stroke-width="2" opacity=".38"/><path d="M800 450 C734 420 702 335 670 285" fill="none" stroke="#15dbe8" stroke-width="2" opacity=".38"/><path d="M800 450 C762 440 736 370 720 310" fill="none" stroke="#15dbe8" stroke-width="2" opacity=".38"/><path d="M800 450 C790 460 770 405 770 335" fill="none" stroke="#15dbe8" stroke-width="2" opacity=".38"/><path d="M800 450 C818 480 804 440 820 360" fill="none" stroke="#15dbe8" stroke-width="2" opacity=".38"/><path d="M800 450 C846 500 838 475 870 385" fill="none" stroke="#15dbe8" stroke-width="2" opacity=".38"/><path d="M800 450 C874 520 872 510 920 410" fill="none" stroke="#15dbe8" stroke-width="2" opacity=".38"/><path d="M800 450 C902 540 906 545 970 435" fill="none" stroke="#15dbe8" stroke-width="2" opacity=".38"/><path d="M800 450 C930 560 940 580 1020 460" fill="none" stroke="#15dbe8" stroke-width="2" opacity=".38"/><path d="M800 450 C958 580 974 615 1070 485" fill="none" stroke="#15dbe8" stroke-width="2" opacity=".38"/></svg>